<svg xmlns="http://www.w3.org/2000/svg" version="1.1" xmlns:xlink="http://www.w3.org/1999/xlink" width="512" height="512" x="0" y="0" viewBox="0 0 512 512" style="enable-background:new 0 0 512 512" xml:space="preserve" class=""><g><path d="m412.187 397.031-24.402-58.912M256.376 438.971l19.47 47.006c9.017 21.769 38.46 25.123 52.141 5.938h0a64.34 64.34 0 0 1 63.009-26.099h0c23.24 3.891 41.688-19.299 32.671-41.069M269.139 406.341l-32.986 79.636c-9.017 21.769-38.46 25.123-52.141 5.938h0a64.34 64.34 0 0 0-63.008-26.099h0c-23.24 3.891-41.688-19.299-32.671-41.069l35.882-86.628" style="stroke-width:15;stroke-linecap:round;stroke-linejoin:round;stroke-miterlimit:10;" fill="none" stroke="#9360f7" stroke-width="15" stroke-linecap="round" stroke-linejoin="round" stroke-miterlimit="10" data-original="#000000" class="" opacity="1"></path><path d="M456 207.5c0-11.559-4.414-22.084-11.648-29.985-9.423-10.293-13.197-24.699-10.217-38.333 2.279-10.429.83-21.706-4.93-31.682-5.767-9.989-14.826-16.889-25.015-20.124-13.312-4.226-23.84-14.754-28.066-28.066-3.235-10.189-10.135-19.248-20.124-25.015-9.975-5.759-21.252-7.209-31.682-4.93-13.634 2.98-28.04-.794-38.333-10.217C278.084 11.914 267.559 7.5 256 7.5s-22.084 4.414-29.985 11.648c-10.293 9.423-24.699 13.197-38.333 10.217-10.429-2.279-21.706-.83-31.682 4.93-9.989 5.767-16.889 14.826-20.124 25.015-4.226 13.312-14.754 23.84-28.066 28.066-10.189 3.235-19.248 10.135-25.015 20.124-5.759 9.975-7.209 21.252-4.93 31.681 2.98 13.634-.794 28.04-10.217 38.333C60.414 185.416 56 195.941 56 207.5s4.414 22.084 11.648 29.985c9.423 10.293 13.197 24.7 10.217 38.333-2.279 10.429-.83 21.706 4.93 31.681 5.767 9.989 14.826 16.889 25.015 20.124 13.312 4.226 23.84 14.754 28.066 28.066 3.235 10.189 10.134 19.248 20.124 25.015 9.975 5.759 21.252 7.209 31.682 4.93 13.634-2.98 28.04.794 38.333 10.217 7.902 7.234 18.426 11.648 29.985 11.648s22.084-4.414 29.985-11.648c10.293-9.423 24.699-13.197 38.333-10.217 10.429 2.279 21.706.83 31.682-4.93 9.989-5.767 16.889-14.826 20.124-25.015 4.226-13.312 14.754-23.84 28.066-28.066 10.189-3.235 19.248-10.134 25.015-20.124 5.759-9.975 7.209-21.252 4.93-31.682-2.98-13.634.794-28.04 10.217-38.333 7.234-7.9 11.648-18.425 11.648-29.984z" style="stroke-width:15;stroke-linecap:round;stroke-linejoin:round;stroke-miterlimit:10;" fill="none" stroke="#9360f7" stroke-width="15" stroke-linecap="round" stroke-linejoin="round" stroke-miterlimit="10" data-original="#000000" class="" opacity="1"></path><path d="M172.963 103.25C195.76 85.055 224.632 74.167 256 74.167c73.521 0 133.333 59.813 133.333 133.333S329.521 340.833 256 340.833c-73.52 0-133.333-59.813-133.333-133.333 0-31.368 10.888-60.24 29.083-83.037" style="stroke-width:15;stroke-linecap:round;stroke-linejoin:round;stroke-miterlimit:10;" fill="none" stroke="#9360f7" stroke-width="15" stroke-linecap="round" stroke-linejoin="round" stroke-miterlimit="10" data-original="#000000" class="" opacity="1"></path><path d="M228.956 261.381a26.941 26.941 0 0 0 19.109 7.915h60.911c14.925 0 27.024-12.099 27.024-27.024v-48.137c0-14.925-12.099-27.024-27.024-27.024h-26.658l14.776-21.321c3.467-5.002 3.268-11.833-.817-16.344a12.951 12.951 0 0 0-18.296-.944l-48.021 43.333" style="stroke-width:15;stroke-linecap:round;stroke-linejoin:round;stroke-miterlimit:10;" fill="none" stroke="#9360f7" stroke-width="15" stroke-linecap="round" stroke-linejoin="round" stroke-miterlimit="10" data-original="#000000" class="" opacity="1"></path><path d="M192.014 269.297h22.02c8.845 0 16.014-7.17 16.014-16.014v-76.069c0-8.845-7.17-16.014-16.014-16.014h-22.02c-8.845 0-16.014 7.17-16.014 16.014v76.069c0 8.844 7.17 16.014 16.014 16.014z" style="stroke-width:15;stroke-linecap:round;stroke-linejoin:round;stroke-miterlimit:10;" fill="none" stroke="#9360f7" stroke-width="15" stroke-linecap="round" stroke-linejoin="round" stroke-miterlimit="10" data-original="#000000" class="" opacity="1"></path></g></svg>