<svg width="200" height="148" viewBox="0 0 200 148" fill="none" xmlns="http://www.w3.org/2000/svg">
<path d="M200 80.1553H151.491C152.32 44.8017 162.347 40.7886 174.941 39.6432L179.798 39.0411V0.166387L174.2 0.466384C157.755 1.39164 139.573 4.35628 127.442 19.331C116.809 32.4583 112.121 53.9048 112.121 86.827V147.832H200V80.1553Z" fill="#8750F7"/>
<path d="M87.875 147.832V80.1553H40.0134C40.8427 44.8017 50.5457 40.7886 63.1396 39.6432L67.673 39.0411V0.166387L62.3982 0.466384C45.9528 1.39164 27.6083 4.35628 15.478 19.331C4.84571 32.4583 -0.00378358 53.9048 -0.00378358 86.827V147.832H87.875Z" fill="#8750F7"/>
</svg>
