<svg width="368" height="138" viewBox="0 0 368 138" fill="none" xmlns="http://www.w3.org/2000/svg">
<g clip-path="url(#clip0_166_43)">
<mask id="mask0_166_43" style="mask-type:luminance" maskUnits="userSpaceOnUse" x="0" y="0" width="368" height="138">
<path d="M368 0H0V138H368V0Z" fill="white"/>
</mask>
<g mask="url(#mask0_166_43)">
<path d="M207.599 20.3694C207.443 20.786 207.287 21.1975 207.12 21.5985C205.505 25.7808 203.776 29.8902 201.932 33.9319C192.333 53.8798 182.026 73.1715 171.016 91.8069C167.432 97.8069 163.766 103.708 160.016 109.515C156.276 115.333 152.521 121.119 148.745 126.869C147.839 128.229 146.932 129.583 146.016 130.932C145.974 131.041 145.922 131.125 145.87 131.182C145.672 131.599 145.438 131.937 145.162 132.203C144.88 132.479 144.516 132.619 144.057 132.619C143.849 132.619 143.625 132.562 143.391 132.453C143.167 132.354 142.984 132.229 142.849 132.078C142.734 131.937 142.651 131.708 142.599 131.39C142.557 131.083 142.583 130.838 142.682 130.661C143.292 129.328 143.979 128.062 144.745 126.869C146.438 124.088 148.146 121.312 149.87 118.536C153.104 113.38 156.287 108.208 159.412 103.015C166.339 91.4475 172.958 79.6402 179.266 67.5985C185.583 55.5464 191.75 43.3694 197.766 31.0777C200.167 26.3277 202.146 21.2444 203.703 15.8277C204.037 14.885 204.287 13.911 204.453 12.911C204.62 11.9006 204.703 10.8485 204.703 9.76519C204.547 7.44748 203.563 6.44227 201.745 6.74435C200.146 7.06727 198.63 7.56727 197.203 8.24435C193.828 9.88498 190.5 11.6923 187.224 13.661C169.599 24.3589 153.542 37.6298 139.057 53.4735C138.849 53.7392 138.62 53.9944 138.37 54.2444C133.37 59.6767 128.401 65.161 123.474 70.7027C118.557 76.2339 113.776 81.9214 109.141 87.7652C108.182 88.9892 107.172 90.1298 106.12 91.1819C104.995 92.3485 103.651 92.8069 102.099 92.5569C101.432 92.4631 100.88 92.135 100.453 91.5777C100.037 91.01 99.87 90.3485 99.953 89.5985C100.271 87.5308 100.729 85.5308 101.328 83.5985C103.188 77.5048 105.167 71.4839 107.266 65.536C107.557 64.6194 107.828 63.7392 108.078 62.8902C108.63 60.6558 109.417 58.5985 110.432 56.7235C110.432 56.6714 110.401 56.6402 110.349 56.6402C110.099 56.5152 109.849 56.411 109.599 56.3277C109.349 56.2444 109.099 56.3277 108.849 56.5777C107.917 57.5933 107.026 58.6506 106.182 59.7444C99.208 69.2027 92.297 78.7444 85.453 88.3694C78.62 97.9839 71.943 107.75 65.432 117.682C64.875 118.64 64.255 119.422 63.578 120.036C62.912 120.646 62.016 120.849 60.8907 120.64C60.3751 120.5 59.9793 120.187 59.7032 119.703C59.4376 119.229 59.3803 118.765 59.5366 118.307C60.1303 116.942 60.7918 115.661 61.5157 114.453C63.526 110.963 65.521 107.474 67.495 103.974C71.464 97.0725 75.401 90.135 79.307 83.161C85.359 72.4683 90.766 61.2131 95.516 49.3902C97.375 44.8485 98.891 40.0725 100.057 35.0569C100.693 32.4058 100.974 29.635 100.891 26.7444C100.583 22.1089 99.042 18.786 96.266 16.786C93.5 14.786 89.854 13.8433 85.328 13.9527C80.813 14.0517 75.797 14.9735 70.287 16.7235C64.771 18.4631 59.1251 20.7652 53.3491 23.6402C47.573 26.5048 41.9949 29.6714 36.6199 33.1402C31.2449 36.5985 26.4689 40.1142 22.2866 43.6819C18.0939 47.2392 14.8282 50.5725 12.4949 53.6819C10.0366 57.1298 7.94799 60.9214 6.22409 65.0569C5.34909 67.0308 4.84389 69.1767 4.70319 71.4944C4.66159 71.9527 4.43239 72.3017 4.01569 72.536C3.59909 72.76 3.14069 72.8225 2.64069 72.7235C1.83869 72.4735 1.32819 71.8433 1.11989 70.8277C0.984489 69.4944 1.08869 68.2808 1.43239 67.1819C2.19799 64.4058 3.21369 61.7808 4.47409 59.3069C6.79699 54.9631 10.3178 50.5308 15.0366 46.0152C19.7605 41.4892 25.2657 37.1558 31.5574 33.0152C37.8491 28.8798 44.422 25.1819 51.2657 21.9319C58.0991 18.6819 64.776 16.161 71.307 14.3694C77.849 12.5673 83.745 11.7548 88.995 11.9319C94.245 12.1142 98.38 13.5569 101.412 16.2652C104.438 18.9631 105.901 23.2131 105.807 29.0152C105.651 32.7548 105.068 36.3069 104.057 39.6819C102.583 44.6402 100.891 49.4319 98.974 54.0569C97.057 58.6819 95.021 63.2131 92.87 67.6402C92.203 69.0152 92.057 69.6923 92.432 69.661C92.807 69.6194 93.375 69.0933 94.141 68.0777C96.875 64.4527 99.604 60.8798 102.328 57.3485C104.188 54.9735 106.083 52.6558 108.016 50.3902C108.266 50.0725 108.516 49.76 108.766 49.4527C109.875 48.1089 111.208 47.2027 112.766 46.7444C113.932 46.4839 114.917 46.7444 115.724 47.536C116.526 48.3173 116.807 49.4839 116.557 51.036C116.5 51.2027 116.453 51.3642 116.412 51.5152C115.995 53.5464 115.516 55.51 114.974 57.411C113.5 62.0673 111.984 66.6923 110.432 71.286C109.667 73.6506 108.912 76.0464 108.162 78.4735C107.995 78.8225 107.755 79.4527 107.453 80.3694C107.162 81.1767 106.875 81.9683 106.599 82.7444C106.318 83.5256 106.104 84.1194 105.953 84.536C106.162 84.3694 108.026 82.2652 111.557 78.2235C116.349 72.7235 122.026 66.2808 128.599 58.8902C135.167 51.5048 140.318 45.8589 144.057 41.9527C150.958 34.9944 158.234 28.6714 165.891 22.9735C173.542 17.2652 181.479 12.1089 189.703 7.49435C191.714 6.44227 193.792 5.48915 195.932 4.64019C196.391 4.47352 196.833 4.28602 197.266 4.07769C199.292 3.28602 201.438 2.98915 203.703 3.18185C208.063 3.59852 210.063 6.35894 209.703 11.4527C209.453 14.6194 208.75 17.5933 207.599 20.3694ZM110.182 56.4527C110.292 56.536 110.375 56.5985 110.432 56.6402C110.432 56.6402 110.432 56.6714 110.432 56.7235C110.474 56.7235 110.495 56.6975 110.495 56.6402C110.396 56.5985 110.292 56.536 110.182 56.4527Z" fill="#E8C2AE"/>
<path d="M211.213 85.889C211.755 86.1963 211.797 86.9463 211.338 88.139C210.672 89.014 209.953 89.8369 209.193 90.5974C208.443 91.3474 207.614 92.0244 206.713 92.6182C206.64 92.6182 206.609 92.639 206.609 92.6807C206.01 93.0974 205.38 93.4619 204.713 93.764C199.224 95.738 196.427 94.5765 196.318 90.2849C194.094 92.2171 192.599 93.3994 191.838 93.8265C190.031 94.9099 188.073 95.389 185.963 95.264C184.396 95.1807 183.333 94.7119 182.776 93.8474C182.208 92.988 182.255 91.8213 182.922 90.3474C183.937 88.0296 185.375 85.9671 187.234 84.1598C189.411 82.1338 191.838 80.514 194.505 79.3057C195.922 78.5869 197.406 78.3057 198.963 78.4723C200.531 78.5713 201.474 79.4515 201.797 81.1182C201.932 81.6338 201.807 82.0869 201.422 82.4723C200.906 82.9307 200.318 83.0348 199.651 82.7848C199.609 82.7848 199.547 82.7744 199.463 82.7432C199.39 82.7171 199.328 82.6807 199.276 82.639C198.609 81.7223 197.932 81.3421 197.255 81.4932C196.588 81.6338 195.87 81.9307 195.109 82.389C191.578 84.4619 188.953 87.3421 187.234 91.0349C187.135 91.2015 187.073 91.3838 187.047 91.5765C187.031 91.7744 187.094 91.9255 187.234 92.0349C187.651 92.1755 188.109 92.1494 188.609 91.9515C189.109 91.7588 189.609 91.4724 190.109 91.0974C190.62 90.7119 191.052 90.389 191.401 90.139C191.443 90.0713 191.463 90.0349 191.463 90.0349C193.14 88.6338 194.781 87.2015 196.38 85.7432C197.099 84.9828 197.989 84.5557 199.047 84.4723C200.557 84.4723 201.193 85.1494 200.943 86.4932C200.802 86.9932 200.651 87.5036 200.484 88.014C199.885 90.1963 199.859 91.4724 200.401 91.8474C200.953 92.2224 201.802 92.2224 202.943 91.8474C204.078 91.4724 205.219 90.7536 206.359 89.6807C207.495 88.613 208.453 87.639 209.234 86.764C210.01 85.8786 210.672 85.5869 211.213 85.889Z" fill="#E8C2AE"/>
<path d="M239.451 84.9721C239.628 84.9305 239.831 84.9409 240.055 84.993C240.289 85.0346 240.472 85.1336 240.597 85.2846C240.722 85.5346 240.706 85.795 240.555 86.0555C240.414 86.3055 240.201 86.5034 239.909 86.6388C237.836 87.6388 235.753 88.6805 233.659 89.7638C231.211 91.0294 228.748 92.295 226.263 93.5555C225.899 93.6961 225.545 93.868 225.201 94.0763C224.643 94.368 224.097 94.6388 223.555 94.8888C222.289 95.5138 221.451 96.4825 221.034 97.7846C219.935 100.909 218.774 104.003 217.555 107.076C215.998 111.185 214.045 115.102 211.701 118.826C210.393 120.951 208.815 122.836 206.951 124.492C204.732 126.586 202.18 127.909 199.305 128.451C194.555 129.42 189.982 129.117 185.576 127.534C183.774 126.878 182.211 125.847 180.888 124.43C179.128 122.524 179.05 120.482 180.659 118.305C181.367 117.388 182.159 116.524 183.034 115.722C184.982 113.956 187.091 112.373 189.367 110.972C197.508 105.763 205.867 100.966 214.451 96.5763C214.503 96.5763 214.534 96.5763 214.534 96.5763C215.42 96.118 216.305 95.6388 217.18 95.1388C217.315 95.0294 217.513 94.7846 217.763 94.4096C218.013 94.0242 218.201 93.6388 218.326 93.2638C218.451 92.8784 218.414 92.5971 218.222 92.4305C218.024 92.2638 217.555 92.3471 216.805 92.6805C216.498 92.8055 216.222 92.9409 215.972 93.0763C215.305 93.3992 214.638 93.6805 213.972 93.9305C210.055 94.8784 208.097 93.3628 208.097 89.3888C208.18 87.0034 208.899 84.8471 210.242 82.9305C211.586 81.0138 213.305 79.5138 215.388 78.4305C217.472 77.3367 219.732 76.9096 222.18 77.1596C222.43 77.1596 222.68 77.1961 222.93 77.2638C223.597 77.3628 224.263 77.4096 224.93 77.4096C225.607 77.4096 226.31 77.2586 227.034 76.9513C227.784 76.6596 228.347 76.7534 228.722 77.2221C229.107 77.6961 229.17 78.3055 228.909 79.0555C228.242 80.4878 227.586 81.9305 226.951 83.3888C226.492 84.295 226.055 85.2221 225.638 86.1805C225.18 87.1961 224.732 88.2325 224.305 89.2846C223.68 90.6596 223.581 91.3836 224.013 91.4513C224.456 91.5242 225.206 91.2794 226.263 90.7221C226.399 90.6805 226.555 90.6388 226.722 90.5971C228.638 89.6805 230.576 88.7742 232.534 87.868C233.909 87.2586 235.274 86.6284 236.638 85.9721C237.555 85.5711 238.492 85.2378 239.451 84.9721ZM214.972 103.472C215.68 101.446 215.982 100.117 215.888 99.493C215.789 98.8575 215.347 98.6909 214.555 98.993C213.774 99.2846 212.753 99.8367 211.492 100.638C210.685 101.154 209.805 101.659 208.847 102.159C203.045 105.295 197.383 108.659 191.867 112.242C189.44 113.659 187.274 115.378 185.367 117.409C183.357 119.56 183.425 121.477 185.576 123.159C186.841 124.159 188.253 124.857 189.805 125.263C191.347 125.664 193.05 125.867 194.909 125.867C197.091 126.034 199.112 125.628 200.972 124.659C202.836 123.701 204.555 122.253 206.138 120.326C207.071 119.06 207.972 117.753 208.847 116.409C211.373 112.284 213.414 107.972 214.972 103.472ZM212.701 91.2846C213.295 91.5346 214.164 91.3211 215.305 90.6388C216.44 89.9461 217.607 88.993 218.805 87.7846C219.998 86.5763 220.94 85.3471 221.638 84.0971C222.331 82.8367 222.513 81.7638 222.18 80.8888C222.081 80.6388 221.93 80.4096 221.722 80.2013C221.357 79.7586 220.951 79.5503 220.492 79.5763C220.045 79.6075 219.576 79.6805 219.076 79.8055C217.393 80.4721 215.909 81.618 214.617 83.243C213.336 84.8575 212.482 86.4513 212.055 88.0346C211.638 89.618 211.852 90.7013 212.701 91.2846Z" fill="#E8C2AE"/>
<path d="M265.713 86.2444C266.072 86.7183 265.609 87.5673 264.317 88.786C263.036 89.9944 261.676 91.0152 260.234 91.8485C258.786 92.6715 257.114 93.4892 255.213 94.3069C253.947 94.8642 252.598 95.0517 251.171 94.8694C249.755 94.6767 249.046 93.8173 249.046 92.286C249.046 90.7444 249.4 89.2183 250.109 87.7027C250.817 86.1506 250.968 85.3485 250.567 85.3069C250.176 85.2548 249.348 85.6298 248.088 86.4319C244.796 88.5881 241.739 91.0517 238.921 93.8277C238.171 94.7444 237.208 95.2548 236.025 95.3485C235.432 95.3485 234.963 95.161 234.63 94.786C234.296 94.4006 234.265 93.9892 234.525 93.5569C236.541 89.8069 238.578 86.1142 240.65 82.4735C241.109 81.7131 241.796 81.2392 242.713 81.0569C243.098 80.9892 243.463 81.1142 243.796 81.4319C244.13 81.7392 244.296 82.0881 244.296 82.4735C244.255 82.8381 244.098 83.2756 243.838 83.786C243.723 84.0777 243.614 84.3642 243.505 84.6402C243.406 84.9215 243.369 85.1506 243.4 85.3277C243.442 85.51 243.588 85.5673 243.838 85.4944C244.182 85.3173 244.531 85.1194 244.88 84.911C245.755 84.411 246.593 83.9319 247.4 83.4735C248.109 83.0569 248.848 82.6923 249.63 82.3694C250.406 82.0517 251.218 81.8277 252.067 81.7027C253.442 81.6194 254.411 81.9319 254.984 82.6402C255.567 83.3485 255.64 84.3381 255.213 85.5985C254.755 86.7548 254.265 87.8902 253.755 89.0152C253.14 90.0725 253.036 90.8798 253.442 91.4319C253.859 91.9735 255.775 91.3381 259.192 89.5152L261.775 88.0152C264.203 86.4475 265.515 85.859 265.713 86.2444Z" fill="#E8C2AE"/>
<path d="M277.339 88.931C276.115 90.3789 274.662 91.7122 272.984 92.931C271.318 94.1549 269.427 94.9831 267.318 95.4101C265.203 95.8268 263.568 95.6706 262.401 94.931C261.234 94.1966 261.005 92.5664 261.714 90.0351C262.63 87.4258 263.891 84.9414 265.505 82.5768C265.865 82.0664 266.391 81.7018 267.089 81.4935C267.589 81.3841 268.026 81.4726 268.401 81.7643C268.776 82.056 268.922 82.4206 268.839 82.8476C268.49 83.6706 268.109 84.4935 267.693 85.3268C267.287 86.1497 267.016 86.6914 266.88 86.9518C266.073 88.4101 265.51 89.9466 265.193 91.556C265.193 92.4726 266.412 92.5299 268.859 91.7226C271.318 90.9206 273.703 89.4466 276.026 87.306C278.344 85.1549 279.448 84.5247 279.339 85.4101C279.24 86.3008 278.573 87.4726 277.339 88.931ZM271.339 77.4101C271.224 77.4935 270.99 77.6081 270.63 77.7435C270.281 77.8685 269.906 77.9622 269.505 78.0143C269.099 78.0716 268.781 78.0091 268.547 77.8268C268.323 77.6341 268.318 77.2643 268.526 76.7226C268.885 75.7539 269.266 74.9049 269.672 74.181C270.073 73.4622 270.599 72.6601 271.255 71.7851C271.656 71.3997 272.099 71.1914 272.589 71.1601C273.073 71.1185 273.474 71.2435 273.797 71.5351C274.115 71.8268 274.203 72.2226 274.068 72.7226C273.568 74.5456 272.656 76.1081 271.339 77.4101Z" fill="#E8C2AE"/>
<path d="M281.781 87.9332C280.875 90.2144 279.927 92.4905 278.927 94.7665C277.354 98.3915 275.568 101.928 273.552 105.37C272.125 107.772 270.385 109.475 268.344 110.475C266.302 111.485 264.021 111.975 261.49 111.933C259.323 111.891 257.505 111.11 256.031 109.6C255.854 109.391 255.719 109.162 255.635 108.912C255.552 108.662 255.594 108.402 255.76 108.141C255.943 107.891 256.187 107.751 256.49 107.725C256.797 107.709 257.083 107.751 257.344 107.85C257.677 107.959 258.031 108.12 258.406 108.329C258.656 108.464 258.906 108.589 259.156 108.704C260.922 109.454 262.63 109.579 264.281 109.079C265.922 108.579 267.338 107.438 268.531 105.662C269.74 103.897 270.802 102.079 271.719 100.204C271.776 100.11 271.823 100.037 271.865 99.9957C273.88 96.053 275.646 92.0321 277.156 87.9332C277.406 87.2821 277.448 86.8186 277.281 86.5373C277.115 86.2613 276.698 86.0738 276.031 85.9748C275.729 85.9071 275.427 85.8707 275.135 85.8707C274.885 85.829 274.63 85.8082 274.365 85.8082C274.073 85.7665 273.823 85.6727 273.615 85.5165C273.406 85.3655 273.354 85.1102 273.448 84.7457C273.521 84.4436 273.677 84.2196 273.927 84.079C274.177 83.928 274.458 83.829 274.76 83.7873C274.802 83.7873 274.875 83.7873 274.969 83.7873C275.719 83.6207 276.479 83.5165 277.24 83.4748C277.948 83.4748 278.474 83.2977 278.823 82.9332C279.182 82.5738 279.49 82.0738 279.74 81.4332C281.167 77.4905 282.661 73.5477 284.219 69.5998C285.87 65.2561 287.833 61.0165 290.115 56.8915C291.073 55.0165 292.307 53.3498 293.823 51.8915C294.625 51.1832 295.49 50.6311 296.406 50.2248C297.323 49.8238 298.307 49.6936 299.365 49.829C299.573 49.829 299.76 49.8915 299.927 50.0165C300.104 50.1415 300.24 50.2873 300.323 50.454C300.49 50.8029 300.453 51.0686 300.219 51.2457C299.995 51.4279 299.76 51.5686 299.51 51.6623C298.286 52.1623 297.312 52.8602 296.594 53.7457C295.87 54.6207 295.224 55.5894 294.656 56.6415C292.375 60.8915 290.37 65.204 288.635 69.579C286.911 73.954 285.292 78.3811 283.781 82.8498C284.781 83.4227 285.807 83.704 286.865 83.704C287.323 83.7613 287.807 83.829 288.323 83.9123C288.406 83.954 288.531 83.9748 288.698 83.9748C288.948 84.0477 289.198 84.1311 289.448 84.2248C289.542 84.2665 289.641 84.3446 289.74 84.454C289.849 84.553 289.875 84.6519 289.823 84.7457C289.823 84.9019 289.766 85.0477 289.656 85.1832C289.557 85.3082 289.453 85.3915 289.344 85.4332C288.146 85.7977 286.948 85.9436 285.74 85.8707C285.432 85.8707 285.099 85.8707 284.74 85.8707C283.266 85.829 282.281 86.5165 281.781 87.9332Z" fill="#E8C2AE"/>
<path d="M317.437 85.4727C317.739 86.0561 317.249 86.9519 315.958 88.1602C314.676 89.3686 312.421 90.8373 309.187 92.5561C307.963 93.0561 307.072 93.4623 306.52 93.7644C305.978 94.0561 305.572 94.4311 305.312 94.8894C305.062 95.3477 304.791 96.0665 304.499 97.0352C304.249 97.7436 303.916 98.6967 303.499 99.8894C302.942 101.363 302.395 102.879 301.853 104.431C300.838 107.624 299.635 110.769 298.249 113.868C296.859 116.978 295.062 119.691 292.853 122.014C290.656 124.332 287.827 125.874 284.353 126.639C280.869 127.306 277.499 127.41 274.249 126.952C270.989 126.493 267.791 125.582 264.666 124.223C263.406 123.65 262.265 122.894 261.249 121.952C259.583 120.228 259.458 118.296 260.874 116.16C261.64 115.103 262.531 114.15 263.541 113.306C265.557 111.681 267.666 110.186 269.874 108.827C273.973 106.353 278.166 104.087 282.458 102.035C286.749 99.9675 291.088 97.9675 295.478 96.0352C295.77 95.8998 296.103 95.7436 296.478 95.5769C297.671 95.0352 298.9 94.4883 300.166 93.9311C301.025 93.6133 301.609 93.03 301.916 92.1811C301.999 91.879 302.02 91.5977 301.978 91.3477C301.937 91.1811 301.853 91.0925 301.728 91.0769C301.603 91.0508 301.458 91.0873 301.291 91.1811C300.859 91.4311 300.416 91.7175 299.958 92.0352C299.708 92.1758 299.426 92.3477 299.124 92.5561C297.541 93.4727 295.9 93.879 294.208 93.7644C291.51 93.7644 290.145 92.5561 290.103 90.1394C290.062 88.1706 290.406 86.3008 291.124 84.5352C291.843 82.7748 292.874 81.1081 294.208 79.5352C294.343 79.3842 294.541 79.2592 294.791 79.1602C295.041 79.0508 295.291 78.9727 295.541 78.9311C295.593 78.9311 295.65 78.905 295.708 78.8477C296.218 78.8061 296.609 78.9415 296.874 79.2436C297.15 79.5352 297.213 79.9102 297.062 80.3686C296.755 81.0092 296.458 81.6602 296.166 82.3269C295.916 82.8269 295.666 83.3373 295.416 83.8477C294.4 85.8217 293.937 87.8842 294.02 90.0352C294.072 90.4936 294.275 90.8269 294.624 91.0352C294.984 91.2436 295.395 91.2436 295.853 91.0352C297.213 90.4831 298.395 89.7019 299.395 88.7019C302.13 86.2175 304.38 83.3581 306.145 80.1186C306.395 79.6602 306.687 79.2748 307.02 78.9519C307.353 78.6342 307.796 78.4519 308.353 78.4102C309.062 78.3425 309.603 78.4936 309.978 78.8686C310.364 79.2436 310.478 79.7436 310.312 80.3686C309.671 82.4415 308.999 84.4831 308.291 86.4936C308.234 86.6602 308.171 86.8165 308.103 86.9519C307.921 87.4102 307.749 87.8894 307.583 88.3894C307.426 88.8894 307.353 89.3373 307.353 89.7227C307.353 90.0977 307.51 90.2852 307.833 90.2852C309.093 90.0352 310.937 89.03 313.353 87.2644C315.781 85.4883 317.145 84.8894 317.437 85.4727ZM299.395 99.3061C299.395 99.1811 299.426 99.0769 299.499 98.9936C299.635 98.7436 299.713 98.4727 299.728 98.1811C299.755 97.879 299.676 97.5665 299.499 97.2436C299.343 97.2436 299.218 97.2436 299.124 97.2436C298.801 97.3165 298.52 97.3894 298.27 97.4727C297.755 97.6811 297.249 97.9102 296.749 98.1602C292.708 100.025 288.676 101.941 284.645 103.91C280.603 105.879 276.64 107.983 272.749 110.223C270.39 111.566 268.166 113.15 266.083 114.973C264.39 116.483 263.577 117.806 263.645 118.931C263.702 120.066 264.697 121.098 266.624 122.014C271.015 124.29 275.728 125.223 280.77 124.806C284.218 124.457 287.015 123.16 289.166 120.91C291.301 118.66 293.051 115.962 294.416 112.827C295.791 109.702 296.984 106.582 297.999 103.473C298.426 102.004 298.895 100.613 299.395 99.3061Z" fill="#E8C2AE"/>
<path d="M358.393 54.2435H359.184V54.806H345.205V54.2435H345.893C346.737 54.2435 347.393 53.8633 347.851 53.0977C348.112 52.6706 348.247 52.2643 348.247 51.8893C348.247 51.5039 348.148 51.1185 347.955 50.7435L339.143 36.8268L328.08 53.0352C325.414 56.9206 322.726 59.7279 320.018 61.4518C317.841 62.7852 315.45 63.4518 312.851 63.4518C312.174 63.4518 311.487 63.4154 310.789 63.3477V62.7643C313.471 62.6497 315.934 61.6029 318.184 59.6185C320.091 57.8945 321.898 55.832 323.622 53.431C323.966 53.0143 324.502 52.2956 325.226 51.2643L337.372 34.0768L327.622 18.6602C326.705 17.3268 325.544 16.3581 324.143 15.7435C323.377 15.4414 322.612 15.2852 321.851 15.2852H321.039V14.7227H334.893V15.2852H334.226C333.726 15.2852 333.247 15.4831 332.789 15.8685C331.83 16.6602 331.622 17.6341 332.164 18.7852L339.893 30.931L350.872 15.2852C353.398 11.7435 355.789 9.26432 358.039 7.84766C360.289 6.43099 362.731 5.72266 365.372 5.72266C365.872 5.72266 366.362 5.74349 366.851 5.78516V6.34766C365.018 6.38932 363.419 6.86849 362.059 7.78516C361.32 8.32682 360.684 8.79558 360.143 9.18099C359.612 9.55599 358.997 10.1602 358.289 10.9935C357.591 11.8268 357.08 12.4414 356.747 12.8268C356.424 13.2018 355.914 13.8841 355.205 14.8685C354.497 15.8425 354.065 16.4206 353.914 16.5977L341.539 33.556L352.601 50.9102C353.278 51.8685 354.127 52.6706 355.143 53.306C356.153 53.931 357.237 54.2435 358.393 54.2435Z" fill="#E8C2AE"/>
</g>
</g>
<defs>
<clipPath id="clip0_166_43">
<rect width="368" height="138" fill="white"/>
</clipPath>
</defs>
</svg>
