<svg width="78" height="44" viewBox="0 0 78 44" fill="none" xmlns="http://www.w3.org/2000/svg">
<path d="M9.721 16.004L7.345 10.334V20H2.215V4.259L0.73 0.559999H7.156L10.936 8.687L14.716 0.559999H19.684V20H14.554V10.388L12.178 16.004H9.721ZM25.3416 20.27C24.6216 20.27 23.9466 20.09 23.3166 19.73C22.6866 19.352 22.1736 18.812 21.7776 18.11C21.3816 17.408 21.1836 16.562 21.1836 15.572C21.1836 14.024 21.7236 12.854 22.8036 12.062C23.9016 11.27 25.3146 10.874 27.0426 10.874H28.2036V9.389C28.2036 8.867 28.0236 8.516 27.6636 8.336C27.3036 8.138 26.8446 8.039 26.2866 8.039C25.6026 8.039 24.9456 8.102 24.3156 8.228C23.6856 8.354 23.0556 8.534 22.4256 8.768V4.988C23.2356 4.808 24.0726 4.646 24.9366 4.502C25.8186 4.34 26.7006 4.259 27.5826 4.259C28.5726 4.259 29.4816 4.385 30.3096 4.637C31.1376 4.871 31.8036 5.303 32.3076 5.933C32.8116 6.563 33.0636 7.463 33.0636 8.633V20H28.8516L28.5276 18.839C28.0776 19.325 27.5736 19.685 27.0156 19.919C26.4576 20.153 25.8996 20.27 25.3416 20.27ZM27.2316 16.706C27.5916 16.706 27.9156 16.544 28.2036 16.22V13.547H27.8526C27.3126 13.547 26.8536 13.682 26.4756 13.952C26.0976 14.204 25.9086 14.591 25.9086 15.113C25.9086 15.617 26.0436 16.013 26.3136 16.301C26.5836 16.571 26.8896 16.706 27.2316 16.706ZM42.0577 9.686C42.0577 8.588 41.6437 8.039 40.8157 8.039C40.4917 8.039 40.2037 8.138 39.9517 8.336V20H35.0917V4.475H39.2227L39.5737 5.528C40.5817 4.682 41.6797 4.259 42.8677 4.259C43.5517 4.259 44.1727 4.394 44.7307 4.664C45.2887 4.934 45.7477 5.339 46.1077 5.879C46.6837 5.321 47.2867 4.916 47.9167 4.664C48.5647 4.394 49.2127 4.259 49.8607 4.259C51.0307 4.259 51.9937 4.646 52.7497 5.42C53.5057 6.194 53.8837 7.355 53.8837 8.903V20H49.0237V9.686C49.0237 8.588 48.6097 8.039 47.7817 8.039C47.4217 8.039 47.1247 8.129 46.8907 8.309C46.8907 8.399 46.8907 8.498 46.8907 8.606C46.9087 8.714 46.9177 8.813 46.9177 8.903V20H42.0577V9.686ZM61.9968 4.475H64.9398V8.12H61.9968V14.843C61.9968 15.347 62.1228 15.716 62.3748 15.95C62.6448 16.184 63.0678 16.301 63.6438 16.301C63.9318 16.301 64.1838 16.292 64.3998 16.274C64.6158 16.238 64.7958 16.202 64.9398 16.166V19.757C64.5078 19.901 64.0488 20.018 63.5628 20.108C63.0948 20.216 62.6178 20.27 62.1318 20.27C60.4758 20.27 59.2248 19.919 58.3788 19.217C57.5508 18.497 57.1368 17.219 57.1368 15.383V8.12H55.1118V4.475H57.1368V1.073H61.9968V4.475ZM70.1658 20.27C69.4458 20.27 68.7708 20.09 68.1408 19.73C67.5108 19.352 66.9978 18.812 66.6018 18.11C66.2058 17.408 66.0078 16.562 66.0078 15.572C66.0078 14.024 66.5478 12.854 67.6278 12.062C68.7258 11.27 70.1388 10.874 71.8668 10.874H73.0278V9.389C73.0278 8.867 72.8478 8.516 72.4878 8.336C72.1278 8.138 71.6688 8.039 71.1108 8.039C70.4268 8.039 69.7698 8.102 69.1398 8.228C68.5098 8.354 67.8798 8.534 67.2498 8.768V4.988C68.0598 4.808 68.8968 4.646 69.7608 4.502C70.6428 4.34 71.5248 4.259 72.4068 4.259C73.3968 4.259 74.3058 4.385 75.1338 4.637C75.9618 4.871 76.6278 5.303 77.1318 5.933C77.6358 6.563 77.8878 7.463 77.8878 8.633V20H73.6758L73.3518 18.839C72.9018 19.325 72.3978 19.685 71.8398 19.919C71.2818 20.153 70.7238 20.27 70.1658 20.27ZM72.0558 16.706C72.4158 16.706 72.7398 16.544 73.0278 16.22V13.547H72.6768C72.1368 13.547 71.6778 13.682 71.2998 13.952C70.9218 14.204 70.7328 14.591 70.7328 15.113C70.7328 15.617 70.8678 16.013 71.1378 16.301C71.4078 16.571 71.7138 16.706 72.0558 16.706ZM7.075 38.599C7.759 38.599 8.272 38.5 8.614 38.302C8.956 38.104 9.127 37.78 9.127 37.33C9.127 37.024 9.046 36.781 8.884 36.601C8.722 36.421 8.434 36.241 8.02 36.061L5.158 34.738C4.096 34.252 3.277 33.604 2.701 32.794C2.125 31.984 1.837 30.805 1.837 29.257C1.837 27.277 2.35 25.801 3.376 24.829C4.42 23.839 6.139 23.335 8.533 23.317C9.523 23.317 10.423 23.362 11.233 23.452C12.043 23.542 12.691 23.641 13.177 23.749C13.663 23.839 13.906 23.884 13.906 23.884L13.366 28.231C13.366 28.231 13.141 28.204 12.691 28.15C12.259 28.096 11.719 28.051 11.071 28.015C10.423 27.961 9.793 27.934 9.181 27.934C8.533 27.934 8.038 28.033 7.696 28.231C7.372 28.411 7.21 28.762 7.21 29.284C7.21 29.572 7.336 29.815 7.588 30.013C7.84 30.193 8.191 30.382 8.641 30.58L10.936 31.579C12.16 32.119 13.051 32.794 13.609 33.604C14.167 34.396 14.446 35.53 14.446 37.006C14.446 39.004 13.924 40.543 12.88 41.623C11.836 42.703 10.117 43.252 7.723 43.27C6.535 43.27 5.428 43.189 4.402 43.027C3.376 42.883 2.467 42.712 1.675 42.514L2.215 38.167C2.215 38.167 2.431 38.203 2.863 38.275C3.313 38.347 3.907 38.419 4.645 38.491C5.383 38.563 6.193 38.599 7.075 38.599ZM22.3418 43.27C20.7398 43.27 19.4438 43 18.4538 42.46C17.4818 41.92 16.7708 41.065 16.3208 39.895C15.8888 38.707 15.6728 37.159 15.6728 35.251C15.6728 33.343 15.8888 31.804 16.3208 30.634C16.7708 29.464 17.4818 28.609 18.4538 28.069C19.4438 27.529 20.7398 27.259 22.3418 27.259C23.9618 27.259 25.2578 27.529 26.2298 28.069C27.2018 28.609 27.9038 29.464 28.3358 30.634C28.7858 31.804 29.0108 33.343 29.0108 35.251C29.0108 37.159 28.7858 38.707 28.3358 39.895C27.9038 41.065 27.2018 41.92 26.2298 42.46C25.2578 43 23.9618 43.27 22.3418 43.27ZM22.3148 39.463C22.9268 39.463 23.3588 39.139 23.6108 38.491C23.8628 37.825 23.9888 36.754 23.9888 35.278C23.9888 33.784 23.8628 32.713 23.6108 32.065C23.3588 31.399 22.9268 31.066 22.3148 31.066C21.7208 31.066 21.2978 31.399 21.0458 32.065C20.8118 32.713 20.6948 33.784 20.6948 35.278C20.6948 36.754 20.8118 37.825 21.0458 38.491C21.2978 39.139 21.7208 39.463 22.3148 39.463ZM35.1177 28.528C36.1797 27.682 37.3317 27.259 38.5737 27.259C39.8157 27.259 40.8417 27.646 41.6517 28.42C42.4797 29.194 42.8937 30.355 42.8937 31.903V43H38.0337V32.686C38.0337 31.588 37.5387 31.039 36.5487 31.039C36.1527 31.039 35.8017 31.138 35.4957 31.336V43H30.6357V27.475H34.7667L35.1177 28.528ZM48.5447 43.27C47.8247 43.27 47.1497 43.09 46.5197 42.73C45.8897 42.352 45.3767 41.812 44.9807 41.11C44.5847 40.408 44.3867 39.562 44.3867 38.572C44.3867 37.024 44.9267 35.854 46.0067 35.062C47.1047 34.27 48.5177 33.874 50.2457 33.874H51.4067V32.389C51.4067 31.867 51.2267 31.516 50.8667 31.336C50.5067 31.138 50.0477 31.039 49.4897 31.039C48.8057 31.039 48.1487 31.102 47.5187 31.228C46.8887 31.354 46.2587 31.534 45.6287 31.768V27.988C46.4387 27.808 47.2757 27.646 48.1397 27.502C49.0217 27.34 49.9037 27.259 50.7857 27.259C51.7757 27.259 52.6847 27.385 53.5127 27.637C54.3407 27.871 55.0067 28.303 55.5107 28.933C56.0147 29.563 56.2667 30.463 56.2667 31.633V43H52.0547L51.7307 41.839C51.2807 42.325 50.7767 42.685 50.2187 42.919C49.6607 43.153 49.1027 43.27 48.5447 43.27ZM50.4347 39.706C50.7947 39.706 51.1187 39.544 51.4067 39.22V36.547H51.0557C50.5157 36.547 50.0567 36.682 49.6787 36.952C49.3007 37.204 49.1117 37.591 49.1117 38.113C49.1117 38.617 49.2467 39.013 49.5167 39.301C49.7867 39.571 50.0927 39.706 50.4347 39.706ZM58.2948 43V27.475H62.4258L62.9658 29.635H63.0198C63.3078 28.735 63.8118 28.078 64.5318 27.664C65.2698 27.25 66.1968 27.142 67.3128 27.34V31.93C66.6108 31.93 65.8818 31.975 65.1258 32.065C64.3878 32.155 63.7308 32.281 63.1548 32.443V43H58.2948Z" fill="white"/>
</svg>
